<svg xmlns="http://www.w3.org/2000/svg" width="630px" height="605px" viewBox="0 0 265 255" xmlns:xlink="http://www.w3.org/1999/xlink">
	<defs>
		<style type="text/css">
			.fil0 {fill:#1A9F29}
		</style>
	</defs>
	<g>
		<path class="fil0" d="M251 62c9,18 14,38 14,60 0,73 -59,133 -132,133 -74,0 -133,-60 -133,-133 0,-3 0,-6 0,-8l0 0 81 46 170 -98 0 0zm-67 -62c6,2 11,5 16,8l0 0 -119 68 -56 -31 0 0c3,-4 6,-8 9,-12l1 0 46 27 103 -60 0 0zm29 17c4,3 8,6 12,10l0 0 -144 83 -70 -40 0 0c2,-5 4,-9 6,-13l0 0 64 36 132 -76 0 0zm22 21c3,3 6,7 9,11l-1 0 -162 94 -77 -44 -2 0c1,-6 2,-11 4,-16l0 0 75 43 154 -88 0 0z"/>
	</g>
</svg>